ZXX.ufo
<glyph name="exclam" format="2">
  <advance width="650"/>
  <unicode hex="0021"/>
  <outline>
    <contour>
      <point x="284" y="200" type="line"/>
      <point x="284" y="675" type="line"/>
      <point x="365" y="675" type="line"/>
      <point x="365" y="200" type="line"/>
    </contour>
    <contour>
      <point x="256" y="0" type="line"/>
      <point x="256" y="138" type="line"/>
      <point x="393" y="138" type="line"/>
      <point x="393" y="0" type="line"/>
    </contour>
  </outline>
</glyph>
<glyph name="quotedbl" format="2">
  <advance width="650"/>
  <unicode hex="0022"/>
  <outline>
    <contour>
      <point x="492" y="577" type="line"/>
      <point x="363" y="577" type="line"/>
      <point x="399" y="778" type="line"/>
      <point x="528" y="778" type="line"/>
    </contour>
    <contour>
      <point x="123" y="577" type="line"/>
      <point x="159" y="778" type="line"/>
      <point x="287" y="778" type="line"/>
      <point x="251" y="577" type="line"/>
    </contour>
  </outline>
</glyph>
<glyph name="ampersand" format="2">
  <advance width="650"/>
  <unicode hex="0026"/>
  <outline>
    <contour>
      <point x="508" y="-18" type="line"/>
      <point x="484" y="15" type="line"/>
      <point x="465" y="43" type="line"/>
      <point x="422" y="13"/>
      <point x="369" y="-2"/>
      <point x="316" y="-2" type="curve" smooth="yes"/>
      <point x="254" y="-2"/>
      <point x="196" y="19"/>
      <point x="152" y="56" type="curve" smooth="yes"/>
      <point x="102" y="98"/>
      <point x="76" y="158"/>
      <point x="76" y="230" type="curve" smooth="yes"/>
      <point x="76" y="319"/>
      <point x="122" y="389"/>
      <point x="193" y="423" type="curve"/>
      <point x="176" y="451"/>
      <point x="167" y="488"/>
      <point x="167" y="532" type="curve" smooth="yes"/>
      <point x="167" y="603"/>
      <point x="203" y="673"/>
      <point x="300" y="673" type="curve" smooth="yes"/>
      <point x="306" y="673" type="line" smooth="yes"/>
      <point x="398" y="670"/>
      <point x="433" y="601"/>
      <point x="433" y="532" type="curve" smooth="yes"/>
      <point x="433" y="450"/>
      <point x="401" y="392"/>
      <point x="344" y="372" type="curve"/>
      <point x="470" y="183" type="line"/>
      <point x="474" y="197"/>
      <point x="476" y="213"/>
      <point x="476" y="230" type="curve" smooth="yes"/>
      <point x="476" y="361" type="line"/>
      <point x="557" y="361" type="line"/>
      <point x="557" y="230" type="line"/>
      <point x="557" y="224" type="line" smooth="yes"/>
      <point x="556" y="176"/>
      <point x="543" y="136"/>
      <point x="522" y="103" type="curve"/>
      <point x="550" y="62" type="line"/>
      <point x="573" y="29" type="line"/>
      <point x="541" y="6" type="line"/>
      <point x="540" y="5" type="line"/>
      <point x="539" y="5" type="line"/>
    </contour>
    <contour>
      <point x="248" y="532" type="curve" smooth="yes"/>
      <point x="248" y="529" type="line" smooth="yes"/>
      <point x="247" y="501"/>
      <point x="240" y="444"/>
      <point x="300" y="444" type="curve"/>
      <point x="362" y="449"/>
      <point x="352" y="507"/>
      <point x="352" y="532" type="curve" smooth="yes"/>
      <point x="352" y="585"/>
      <point x="317" y="592"/>
      <point x="300" y="592" type="curve"/>
      <point x="300" y="592" type="line"/>
      <point x="283" y="592"/>
      <point x="248" y="585"/>
    </contour>
    <contour>
      <point x="316" y="79" type="curve" smooth="yes"/>
      <point x="353" y="79"/>
      <point x="391" y="89"/>
      <point x="420" y="111" type="curve"/>
      <point x="256" y="358" type="line"/>
      <point x="211" y="347"/>
      <point x="157" y="313"/>
      <point x="157" y="230" type="curve" smooth="yes"/>
      <point x="157" y="126"/>
      <point x="237" y="79"/>
    </contour>
  </outline>
</glyph>
<glyph name="asterisk" format="2">
  <advance width="650"/>
  <unicode hex="002A"/>
  <outline>
    <contour>
      <point x="366" y="362" type="line"/>
      <point x="366" y="222" type="line"/>
      <point x="285" y="222" type="line"/>
      <point x="285" y="362" type="line"/>
      <point x="186" y="263" type="line"/>
      <point x="129" y="320" type="line"/>
      <point x="228" y="419" type="line"/>
      <point x="87" y="419" type="line"/>
      <point x="87" y="500" type="line"/>
      <point x="228" y="500" type="line"/>
      <point x="129" y="599" type="line"/>
      <point x="186" y="656" type="line"/>
      <point x="285" y="557" type="line"/>
      <point x="285" y="697" type="line"/>
      <point x="366" y="697" type="line"/>
      <point x="366" y="557" type="line"/>
      <point x="465" y="656" type="line"/>
      <point x="521" y="599" type="line"/>
      <point x="422" y="500" type="line"/>
      <point x="563" y="500" type="line"/>
      <point x="563" y="419" type="line"/>
      <point x="422" y="419" type="line"/>
      <point x="521" y="320" type="line"/>
      <point x="465" y="263" type="line"/>
    </contour>
  </outline>
</glyph>
<glyph name="hyphen" format="2">
  <advance width="650"/>
  <unicode hex="002D"/>
  <outline>
    <contour>
      <point x="204" y="280" type="line"/>
      <point x="204" y="361" type="line"/>
      <point x="447" y="361" type="line"/>
      <point x="447" y="280" type="line"/>
    </contour>
  </outline>
</glyph>
<glyph name="period" format="2">
  <advance width="650"/>
  <unicode hex="002E"/>
  <outline>
    <contour>
      <point x="248" y="0" type="line"/>
      <point x="248" y="153" type="line"/>
      <point x="401" y="153" type="line"/>
      <point x="401" y="0" type="line"/>
    </contour>
  </outline>
</glyph>
<glyph name="slash" format="2">
  <advance width="650"/>
  <unicode hex="002F"/>
  <outline>
    <contour>
      <point x="191" y="0" type="line"/>
      <point x="92" y="0" type="line"/>
      <point x="459" y="664" type="line"/>
      <point x="558" y="664" type="line"/>
    </contour>
  </outline>
</glyph>
<glyph name="zero" format="2">
  <advance width="650"/>
  <unicode hex="0030"/>
  <outline>
    <contour>
      <point x="375" y="81" type="line" smooth="yes"/>
      <point x="455" y="81"/>
      <point x="485" y="155"/>
      <point x="485" y="277" type="curve" smooth="yes"/>
      <point x="485" y="387" type="line"/>
      <point x="485" y="387" type="line"/>
      <point x="485" y="509"/>
      <point x="455" y="583"/>
      <point x="375" y="583" type="curve" smooth="yes"/>
      <point x="275" y="583" type="line"/>
      <point x="275" y="583" type="line"/>
      <point x="195" y="583"/>
      <point x="165" y="509"/>
      <point x="165" y="387" type="curve" smooth="yes"/>
      <point x="165" y="277" type="line"/>
      <point x="165" y="277" type="line"/>
      <point x="165" y="155"/>
      <point x="195" y="81"/>
      <point x="275" y="81" type="curve" smooth="yes"/>
    </contour>
    <contour>
      <point x="375" y="0" type="curve" smooth="yes"/>
      <point x="275" y="0" type="line"/>
      <point x="275" y="0" type="line"/>
      <point x="149" y="2"/>
      <point x="85" y="119"/>
      <point x="84" y="263" type="curve" smooth="yes"/>
      <point x="84" y="402" type="line" smooth="yes"/>
      <point x="83" y="563"/>
      <point x="159" y="664"/>
      <point x="275" y="664" type="curve" smooth="yes"/>
      <point x="375" y="664" type="line"/>
      <point x="375" y="664" type="line"/>
      <point x="491" y="664"/>
      <point x="567" y="563"/>
      <point x="566" y="402" type="curve" smooth="yes"/>
      <point x="566" y="263" type="line" smooth="yes"/>
      <point x="565" y="119"/>
      <point x="501" y="2"/>
    </contour>
  </outline>
</glyph>
<glyph name="one" format="2">
  <advance width="650"/>
  <unicode hex="0031"/>
  <outline>
    <contour>
      <point x="85" y="0" type="line"/>
      <point x="85" y="81" type="line"/>
      <point x="339" y="81" type="line"/>
      <point x="339" y="583" type="line"/>
      <point x="134" y="526" type="line"/>
      <point x="134" y="607" type="line"/>
      <point x="339" y="664" type="line"/>
      <point x="420" y="664" type="line"/>
      <point x="420" y="81" type="line"/>
      <point x="566" y="81" type="line"/>
      <point x="566" y="0" type="line"/>
    </contour>
  </outline>
</glyph>
<glyph name="two" format="2">
  <advance width="650"/>
  <unicode hex="0032"/>
  <outline>
    <contour>
      <point x="84" y="0" type="line"/>
      <point x="84" y="35" type="line" smooth="yes"/>
      <point x="83" y="39"/>
      <point x="83" y="42"/>
      <point x="84" y="45" type="curve" smooth="yes"/>
      <point x="84" y="58" type="line"/>
      <point x="124" y="97" type="line"/>
      <point x="124" y="96" type="line"/>
      <point x="483" y="449" type="line"/>
      <point x="480" y="489"/>
      <point x="464" y="521"/>
      <point x="437" y="545" type="curve" smooth="yes"/>
      <point x="408" y="570"/>
      <point x="367" y="583"/>
      <point x="325" y="583" type="curve" smooth="yes"/>
      <point x="245" y="583"/>
      <point x="165" y="536"/>
      <point x="165" y="432" type="curve" smooth="yes"/>
      <point x="165" y="392" type="line"/>
      <point x="84" y="392" type="line"/>
      <point x="84" y="432" type="line"/>
      <point x="84" y="438" type="line" smooth="yes"/>
      <point x="87" y="587"/>
      <point x="206" y="664"/>
      <point x="325" y="664" type="curve" smooth="yes"/>
      <point x="443" y="664"/>
      <point x="560" y="588"/>
      <point x="565" y="440" type="curve" smooth="yes"/>
      <point x="567" y="427"/>
      <point x="564" y="413"/>
      <point x="554" y="403" type="curve" smooth="yes"/>
      <point x="223" y="81" type="line"/>
      <point x="484" y="81" type="line"/>
      <point x="484" y="227" type="line"/>
      <point x="565" y="227" type="line"/>
      <point x="565" y="0" type="line"/>
    </contour>
  </outline>
</glyph>
<glyph name="three" format="2">
  <advance width="650"/>
  <unicode hex="0033"/>
  <outline>
    <contour>
      <point x="335" y="0" type="curve" smooth="yes"/>
      <point x="333" y="0" type="line" smooth="yes"/>
      <point x="331" y="0"/>
      <point x="328" y="0"/>
      <point x="326" y="0" type="curve"/>
      <point x="326" y="0" type="line"/>
      <point x="265" y="0"/>
      <point x="208" y="16"/>
      <point x="165" y="46" type="curve" smooth="yes"/>
      <point x="113" y="81"/>
      <point x="85" y="134"/>
      <point x="85" y="195" type="curve" smooth="yes"/>
      <point x="85" y="236" type="line"/>
      <point x="166" y="236" type="line"/>
      <point x="166" y="195" type="line"/>
      <point x="166" y="195" type="line"/>
      <point x="166" y="117"/>
      <point x="249" y="81"/>
      <point x="326" y="81" type="curve" smooth="yes"/>
      <point x="402" y="81"/>
      <point x="485" y="117"/>
      <point x="485" y="190" type="curve" smooth="yes"/>
      <point x="482" y="240"/>
      <point x="435" y="292"/>
      <point x="335" y="292" type="curve" smooth="yes"/>
      <point x="231" y="292" type="line"/>
      <point x="231" y="373" type="line"/>
      <point x="335" y="373" type="line" smooth="yes"/>
      <point x="435" y="373"/>
      <point x="482" y="425"/>
      <point x="485" y="474" type="curve" smooth="yes"/>
      <point x="483" y="506"/>
      <point x="469" y="532"/>
      <point x="440" y="552" type="curve" smooth="yes"/>
      <point x="411" y="572"/>
      <point x="369" y="583"/>
      <point x="325" y="583" type="curve" smooth="yes"/>
      <point x="249" y="583"/>
      <point x="166" y="547"/>
      <point x="166" y="469" type="curve" smooth="yes"/>
      <point x="166" y="428" type="line"/>
      <point x="85" y="428" type="line"/>
      <point x="85" y="469" type="line"/>
      <point x="85" y="475" type="line" smooth="yes"/>
      <point x="88" y="599"/>
      <point x="207" y="664"/>
      <point x="325" y="664" type="curve" smooth="yes"/>
      <point x="328" y="664"/>
      <point x="330" y="664"/>
      <point x="333" y="664" type="curve" smooth="yes"/>
      <point x="335" y="664" type="line" smooth="yes"/>
      <point x="487" y="664"/>
      <point x="566" y="571"/>
      <point x="566" y="478" type="curve" smooth="yes"/>
      <point x="566" y="476"/>
      <point x="566" y="475"/>
      <point x="566" y="474" type="curve" smooth="yes"/>
      <point x="566" y="469" type="line" smooth="yes"/>
      <point x="566" y="466"/>
      <point x="566" y="463"/>
      <point x="565" y="460" type="curve" smooth="yes"/>
      <point x="560" y="411"/>
      <point x="533" y="364"/>
      <point x="484" y="332" type="curve"/>
      <point x="533" y="300"/>
      <point x="560" y="253"/>
      <point x="565" y="204" type="curve" smooth="yes"/>
      <point x="566" y="201"/>
      <point x="566" y="198"/>
      <point x="566" y="195" type="curve" smooth="yes"/>
      <point x="566" y="191" type="line" smooth="yes"/>
      <point x="566" y="189"/>
      <point x="566" y="188"/>
      <point x="566" y="186" type="curve" smooth="yes"/>
      <point x="566" y="94"/>
      <point x="487" y="0"/>
    </contour>
  </outline>
</glyph>
<glyph name="four" format="2">
  <advance width="650"/>
  <unicode hex="0034"/>
  <outline>
    <contour>
      <point x="486" y="227" type="line"/>
      <point x="486" y="520" type="line"/>
      <point x="218" y="227" type="line"/>
    </contour>
    <contour>
      <point x="486" y="0" type="line"/>
      <point x="486" y="146" type="line"/>
      <point x="126" y="146" type="line"/>
      <point x="96" y="213" type="line"/>
      <point x="509" y="664" type="line"/>
      <point x="567" y="664" type="line"/>
      <point x="567" y="0" type="line"/>
    </contour>
  </outline>
</glyph>
<glyph name="five" format="2">
  <advance width="650"/>
  <unicode hex="0035"/>
  <outline>
    <contour>
      <point x="334" y="0" type="curve" smooth="yes"/>
      <point x="332" y="0" type="line" smooth="yes"/>
      <point x="330" y="0"/>
      <point x="327" y="0"/>
      <point x="325" y="0" type="curve"/>
      <point x="325" y="0" type="line"/>
      <point x="262" y="0"/>
      <point x="204" y="21"/>
      <point x="160" y="58" type="curve" smooth="yes"/>
      <point x="110" y="100"/>
      <point x="84" y="160"/>
      <point x="84" y="232" type="curve" smooth="yes"/>
      <point x="84" y="273" type="line"/>
      <point x="165" y="273" type="line"/>
      <point x="165" y="232" type="line"/>
      <point x="165" y="226" type="line" smooth="yes"/>
      <point x="168" y="126"/>
      <point x="247" y="81"/>
      <point x="325" y="81" type="curve" smooth="yes"/>
      <point x="368" y="81"/>
      <point x="411" y="95"/>
      <point x="442" y="124" type="curve" smooth="yes"/>
      <point x="470" y="155"/>
      <point x="484" y="198"/>
      <point x="484" y="241" type="curve" smooth="yes"/>
      <point x="484" y="320"/>
      <point x="437" y="401"/>
      <point x="334" y="401" type="curve" smooth="yes"/>
      <point x="84" y="401" type="line"/>
      <point x="84" y="664" type="line"/>
      <point x="565" y="664" type="line"/>
      <point x="565" y="583" type="line"/>
      <point x="165" y="583" type="line"/>
      <point x="165" y="482" type="line"/>
      <point x="343" y="482" type="line" smooth="yes"/>
      <point x="345" y="482"/>
      <point x="347" y="482"/>
      <point x="348" y="482" type="curve" smooth="yes"/>
      <point x="491" y="474"/>
      <point x="565" y="357"/>
      <point x="565" y="241" type="curve" smooth="yes"/>
      <point x="565" y="238"/>
      <point x="565" y="236"/>
      <point x="565" y="234" type="curve" smooth="yes"/>
      <point x="565" y="232" type="line" smooth="yes"/>
      <point x="565" y="156"/>
      <point x="535" y="98"/>
      <point x="491" y="59" type="curve" smooth="yes"/>
      <point x="453" y="23"/>
      <point x="400" y="0"/>
    </contour>
  </outline>
</glyph>
<glyph name="six" format="2">
  <advance width="650"/>
  <unicode hex="0036"/>
  <outline>
    <contour>
      <point x="333" y="0" type="curve" smooth="yes"/>
      <point x="320" y="0" type="line" smooth="yes"/>
      <point x="259" y="1"/>
      <point x="203" y="22"/>
      <point x="160" y="58" type="curve" smooth="yes"/>
      <point x="113" y="97"/>
      <point x="87" y="152"/>
      <point x="84" y="218" type="curve" smooth="yes"/>
      <point x="84" y="241" type="line" smooth="yes"/>
      <point x="83" y="245"/>
      <point x="83" y="248"/>
      <point x="83" y="250" type="curve" smooth="yes"/>
      <point x="83" y="258"/>
      <point x="83" y="266"/>
      <point x="84" y="273" type="curve" smooth="yes"/>
      <point x="84" y="446" type="line"/>
      <point x="85" y="449" type="line"/>
      <point x="93" y="591"/>
      <point x="209" y="664"/>
      <point x="325" y="664" type="curve" smooth="yes"/>
      <point x="445" y="664"/>
      <point x="565" y="585"/>
      <point x="565" y="432" type="curve" smooth="yes"/>
      <point x="565" y="392" type="line"/>
      <point x="518" y="392" type="line"/>
      <point x="547" y="355"/>
      <point x="564" y="308"/>
      <point x="564" y="250" type="curve" smooth="yes"/>
      <point x="564" y="240" type="line" smooth="yes"/>
      <point x="565" y="238"/>
      <point x="565" y="235"/>
      <point x="565" y="232" type="curve" smooth="yes"/>
      <point x="565" y="153"/>
      <point x="533" y="93"/>
      <point x="484" y="54" type="curve" smooth="yes"/>
      <point x="446" y="21"/>
      <point x="396" y="0"/>
    </contour>
    <contour>
      <point x="484" y="428" type="curve"/>
      <point x="484" y="432" type="line" smooth="yes"/>
      <point x="484" y="480"/>
      <point x="468" y="518"/>
      <point x="437" y="545" type="curve" smooth="yes"/>
      <point x="408" y="570"/>
      <point x="367" y="583"/>
      <point x="325" y="583" type="curve" smooth="yes"/>
      <point x="245" y="583"/>
      <point x="165" y="536"/>
      <point x="165" y="432" type="curve" smooth="yes"/>
      <point x="165" y="428" type="line"/>
      <point x="209" y="464"/>
      <point x="266" y="482"/>
      <point x="333" y="482" type="curve" smooth="yes"/>
      <point x="338" y="482" type="line" smooth="yes"/>
      <point x="400" y="482"/>
      <point x="447" y="461"/>
    </contour>
    <contour>
      <point x="325" y="81" type="curve" smooth="yes"/>
      <point x="364" y="81"/>
      <point x="403" y="93"/>
      <point x="433" y="116" type="curve" smooth="yes"/>
      <point x="467" y="148"/>
      <point x="483" y="194"/>
      <point x="483" y="241" type="curve" smooth="yes"/>
      <point x="483" y="284"/>
      <point x="470" y="327"/>
      <point x="441" y="358" type="curve" smooth="yes"/>
      <point x="439" y="359"/>
      <point x="437" y="361"/>
      <point x="436" y="363" type="curve" smooth="yes"/>
      <point x="407" y="387"/>
      <point x="366" y="401"/>
      <point x="324" y="401" type="curve" smooth="yes"/>
      <point x="246" y="401"/>
      <point x="167" y="356"/>
      <point x="164" y="257" type="curve" smooth="yes"/>
      <point x="164" y="240" type="line" smooth="yes"/>
      <point x="165" y="238"/>
      <point x="165" y="235"/>
      <point x="165" y="232" type="curve" smooth="yes"/>
      <point x="165" y="128"/>
      <point x="245" y="81"/>
    </contour>
  </outline>
</glyph>
<glyph name="seven" format="2">
  <advance width="650"/>
  <unicode hex="0037"/>
  <outline>
    <contour>
      <point x="96" y="-1" type="line"/>
      <point x="485" y="456" type="line"/>
      <point x="485" y="583" type="line"/>
      <point x="125" y="583" type="line"/>
      <point x="124" y="583" type="line"/>
      <point x="124" y="583" type="line"/>
      <point x="84" y="583" type="line"/>
      <point x="84" y="664" type="line"/>
      <point x="124" y="664" type="line"/>
      <point x="124" y="664" type="line"/>
      <point x="125" y="664" type="line"/>
      <point x="565" y="664" type="line"/>
      <point x="565" y="633" type="line" smooth="yes"/>
      <point x="566" y="630"/>
      <point x="566" y="627"/>
      <point x="566" y="624" type="curve" smooth="yes"/>
      <point x="566" y="447" type="line" smooth="yes"/>
      <point x="567" y="442"/>
      <point x="566" y="437"/>
      <point x="565" y="432" type="curve" smooth="yes"/>
      <point x="565" y="431" type="line" smooth="yes"/>
      <point x="564" y="430"/>
      <point x="564" y="430"/>
      <point x="564" y="429" type="curve" smooth="yes"/>
      <point x="564" y="428"/>
      <point x="563" y="427"/>
      <point x="563" y="426" type="curve" smooth="yes"/>
      <point x="563" y="426"/>
      <point x="563" y="426"/>
      <point x="563" y="425" type="curve" smooth="yes"/>
      <point x="562" y="424"/>
      <point x="562" y="423"/>
      <point x="561" y="422" type="curve" smooth="yes"/>
      <point x="559" y="419"/>
      <point x="557" y="416"/>
      <point x="555" y="413" type="curve" smooth="yes"/>
      <point x="203" y="-1" type="line"/>
    </contour>
  </outline>
</glyph>
<glyph name="nine" format="2">
  <advance width="650"/>
  <unicode hex="0039"/>
  <outline>
    <contour>
      <point x="326" y="263" type="curve" smooth="yes"/>
      <point x="405" y="263"/>
      <point x="485" y="310"/>
      <point x="485" y="414" type="curve" smooth="yes"/>
      <point x="485" y="432" type="line" smooth="yes"/>
      <point x="485" y="480"/>
      <point x="469" y="518"/>
      <point x="438" y="545" type="curve" smooth="yes"/>
      <point x="409" y="569"/>
      <point x="368" y="583"/>
      <point x="326" y="583" type="curve" smooth="yes"/>
      <point x="283" y="583"/>
      <point x="241" y="570"/>
      <point x="210" y="542" type="curve" smooth="yes"/>
      <point x="180" y="511"/>
      <point x="166" y="467"/>
      <point x="166" y="423" type="curve" smooth="yes"/>
      <point x="166" y="380"/>
      <point x="179" y="338"/>
      <point x="207" y="307" type="curve" smooth="yes"/>
      <point x="238" y="277"/>
      <point x="282" y="263"/>
    </contour>
    <contour>
      <point x="307" y="0" type="curve" smooth="yes"/>
      <point x="267" y="0" type="line"/>
      <point x="267" y="81" type="line"/>
      <point x="307" y="81" type="line"/>
      <point x="307" y="81" type="line"/>
      <point x="389" y="81"/>
      <point x="485" y="105"/>
      <point x="485" y="222" type="curve" smooth="yes"/>
      <point x="485" y="236" type="line"/>
      <point x="441" y="200"/>
      <point x="383" y="182"/>
      <point x="326" y="182" type="curve" smooth="yes"/>
      <point x="321" y="182" type="line"/>
      <point x="318" y="182" type="line"/>
      <point x="316" y="182" type="line"/>
      <point x="310" y="182" type="line" smooth="yes"/>
      <point x="249" y="183"/>
      <point x="201" y="204"/>
      <point x="164" y="236" type="curve" smooth="yes"/>
      <point x="161" y="239" type="line"/>
      <point x="111" y="282"/>
      <point x="85" y="342"/>
      <point x="85" y="414" type="curve" smooth="yes"/>
      <point x="85" y="415" type="line" smooth="yes"/>
      <point x="85" y="418"/>
      <point x="85" y="420"/>
      <point x="85" y="423" type="curve" smooth="yes"/>
      <point x="85" y="426"/>
      <point x="85" y="428"/>
      <point x="85" y="430" type="curve" smooth="yes"/>
      <point x="85" y="432" type="line" smooth="yes"/>
      <point x="85" y="502"/>
      <point x="110" y="556"/>
      <point x="149" y="595" type="curve" smooth="yes"/>
      <point x="188" y="637"/>
      <point x="244" y="664"/>
      <point x="316" y="664" type="curve" smooth="yes"/>
      <point x="318" y="664" type="line" smooth="yes"/>
      <point x="321" y="664"/>
      <point x="323" y="664"/>
      <point x="326" y="664" type="curve" smooth="yes"/>
      <point x="442" y="664"/>
      <point x="558" y="589"/>
      <point x="566" y="447" type="curve" smooth="yes"/>
      <point x="566" y="445"/>
      <point x="566" y="443"/>
      <point x="566" y="441" type="curve" smooth="yes"/>
      <point x="566" y="222" type="line" smooth="yes"/>
      <point x="566" y="156"/>
      <point x="543" y="99"/>
      <point x="498" y="60" type="curve" smooth="yes"/>
      <point x="452" y="21"/>
      <point x="388" y="0"/>
    </contour>
  </outline>
</glyph>
<glyph name="at" format="2">
  <advance width="650"/>
  <unicode hex="0040"/>
  <outline>
    <contour>
      <point x="357" y="-45" type="line" smooth="yes"/>
      <point x="169" y="-45"/>
      <point x="63" y="134"/>
      <point x="63" y="335" type="curve" smooth="yes"/>
      <point x="63" y="500"/>
      <point x="160" y="660"/>
      <point x="337" y="660" type="curve" smooth="yes"/>
      <point x="340" y="660" type="line" smooth="yes"/>
      <point x="490" y="658"/>
      <point x="586" y="518"/>
      <point x="586" y="398" type="curve" smooth="yes"/>
      <point x="586" y="336"/>
      <point x="565" y="265"/>
      <point x="524" y="210" type="curve"/>
      <point x="524" y="113" type="line"/>
      <point x="443" y="113" type="line"/>
      <point x="443" y="142" type="line"/>
      <point x="417" y="129"/>
      <point x="388" y="122"/>
      <point x="355" y="122" type="curve" smooth="yes"/>
      <point x="262" y="122"/>
      <point x="185" y="198"/>
      <point x="185" y="291" type="curve" smooth="yes"/>
      <point x="185" y="384"/>
      <point x="262" y="460"/>
      <point x="355" y="460" type="curve" smooth="yes"/>
      <point x="419" y="460"/>
      <point x="475" y="423"/>
      <point x="504" y="370" type="curve"/>
      <point x="505" y="380"/>
      <point x="506" y="389"/>
      <point x="506" y="398" type="curve" smooth="yes"/>
      <point x="506" y="490"/>
      <point x="427" y="579"/>
      <point x="338" y="579" type="curve" smooth="yes"/>
      <point x="222" y="579"/>
      <point x="143" y="472"/>
      <point x="143" y="335" type="curve" smooth="yes"/>
      <point x="143" y="175"/>
      <point x="218" y="36"/>
      <point x="357" y="36" type="curve" smooth="yes"/>
      <point x="398" y="36" type="line"/>
      <point x="398" y="-45" type="line"/>
    </contour>
    <contour>
      <point x="443" y="291" type="curve" smooth="yes"/>
      <point x="443" y="340"/>
      <point x="402" y="379"/>
      <point x="355" y="379" type="curve" smooth="yes"/>
      <point x="309" y="379"/>
      <point x="267" y="340"/>
      <point x="267" y="291" type="curve" smooth="yes"/>
      <point x="267" y="244"/>
      <point x="309" y="203"/>
      <point x="355" y="203" type="curve" smooth="yes"/>
      <point x="402" y="203"/>
      <point x="443" y="243"/>
    </contour>
  </outline>
</glyph>
<glyph name="A" format="2">
  <advance width="650"/>
  <unicode hex="0041"/>
  <outline>
    <contour>
      <point x="434" y="190" type="line"/>
      <point x="326" y="500" type="line"/>
      <point x="217" y="190" type="line"/>
    </contour>
    <contour>
      <point x="499" y="0" type="line"/>
      <point x="482" y="50" type="line"/>
      <point x="462" y="109" type="line"/>
      <point x="189" y="109" type="line"/>
      <point x="169" y="50" type="line"/>
      <point x="152" y="0" type="line"/>
      <point x="70" y="0" type="line"/>
      <point x="90" y="58" type="line"/>
      <point x="287" y="635" type="line"/>
      <point x="287" y="635" type="line"/>
      <point x="297" y="664" type="line"/>
      <point x="354" y="664" type="line"/>
      <point x="364" y="635" type="line"/>
      <point x="364" y="635" type="line"/>
      <point x="561" y="58" type="line"/>
      <point x="581" y="0" type="line"/>
    </contour>
  </outline>
</glyph>
<glyph name="B" format="2">
  <advance width="650"/>
  <unicode hex="0042"/>
  <outline>
    <contour>
      <point x="334" y="373" type="line"/>
      <point x="341" y="373" type="line" smooth="yes"/>
      <point x="439" y="376"/>
      <point x="484" y="429"/>
      <point x="484" y="478" type="curve" smooth="yes"/>
      <point x="484" y="528"/>
      <point x="437" y="583"/>
      <point x="334" y="583" type="curve" smooth="yes"/>
      <point x="165" y="583" type="line"/>
      <point x="165" y="373" type="line"/>
    </contour>
    <contour>
      <point x="334" y="292" type="curve" smooth="yes"/>
      <point x="165" y="292" type="line"/>
      <point x="165" y="81" type="line"/>
      <point x="334" y="81" type="line" smooth="yes"/>
      <point x="437" y="81"/>
      <point x="484" y="136"/>
      <point x="484" y="186" type="curve" smooth="yes"/>
      <point x="484" y="237"/>
      <point x="437" y="292"/>
    </contour>
    <contour>
      <point x="84" y="0" type="line"/>
      <point x="84" y="664" type="line"/>
      <point x="343" y="664" type="line"/>
      <point x="347" y="664" type="line"/>
      <point x="490" y="659"/>
      <point x="565" y="568"/>
      <point x="565" y="478" type="curve" smooth="yes"/>
      <point x="565" y="423"/>
      <point x="537" y="368"/>
      <point x="483" y="332" type="curve"/>
      <point x="537" y="296"/>
      <point x="565" y="241"/>
      <point x="565" y="186" type="curve" smooth="yes"/>
      <point x="565" y="97"/>
      <point x="490" y="5"/>
      <point x="347" y="0" type="curve"/>
      <point x="343" y="0" type="line"/>
    </contour>
  </outline>
</glyph>
<glyph name="C" format="2">
  <advance width="650"/>
  <unicode hex="0043"/>
  <outline>
    <contour>
      <point x="565" y="232" type="line"/>
      <point x="565" y="79"/>
      <point x="445" y="0"/>
      <point x="324" y="0" type="curve" smooth="yes"/>
      <point x="319" y="0" type="line" smooth="yes"/>
      <point x="259" y="1"/>
      <point x="203" y="22"/>
      <point x="160" y="58" type="curve" smooth="yes"/>
      <point x="113" y="97"/>
      <point x="88" y="152"/>
      <point x="84" y="218" type="curve" smooth="yes"/>
      <point x="84" y="219"/>
      <point x="84" y="221"/>
      <point x="84" y="223" type="curve" smooth="yes"/>
      <point x="84" y="442" type="line" smooth="yes"/>
      <point x="84" y="444"/>
      <point x="84" y="446"/>
      <point x="84" y="448" type="curve" smooth="yes"/>
      <point x="92" y="590"/>
      <point x="208" y="664"/>
      <point x="324" y="664" type="curve" smooth="yes"/>
      <point x="445" y="664"/>
      <point x="565" y="585"/>
      <point x="565" y="432" type="curve"/>
      <point x="484" y="432" type="line"/>
      <point x="484" y="432" type="line"/>
      <point x="484" y="480"/>
      <point x="468" y="518"/>
      <point x="437" y="545" type="curve" smooth="yes"/>
      <point x="408" y="570"/>
      <point x="367" y="583"/>
      <point x="324" y="583" type="curve" smooth="yes"/>
      <point x="245" y="583"/>
      <point x="165" y="536"/>
      <point x="165" y="432" type="curve" smooth="yes"/>
      <point x="165" y="232" type="line" smooth="yes"/>
      <point x="165" y="128"/>
      <point x="245" y="81"/>
      <point x="324" y="81" type="curve" smooth="yes"/>
      <point x="404" y="81"/>
      <point x="484" y="128"/>
      <point x="484" y="232" type="curve"/>
    </contour>
  </outline>
</glyph>
<glyph name="D" format="2">
  <advance width="650"/>
  <unicode hex="0044"/>
  <outline>
    <contour>
      <point x="334" y="81" type="line" smooth="yes"/>
      <point x="378" y="81"/>
      <point x="415" y="105"/>
      <point x="442" y="152" type="curve" smooth="yes"/>
      <point x="469" y="198"/>
      <point x="484" y="264"/>
      <point x="484" y="332" type="curve" smooth="yes"/>
      <point x="484" y="457"/>
      <point x="433" y="583"/>
      <point x="334" y="583" type="curve" smooth="yes"/>
      <point x="164" y="583" type="line"/>
      <point x="164" y="81" type="line"/>
    </contour>
    <contour>
      <point x="84" y="0" type="line"/>
      <point x="84" y="664" type="line"/>
      <point x="343" y="664" type="line" smooth="yes"/>
      <point x="345" y="664"/>
      <point x="347" y="664"/>
      <point x="350" y="663" type="curve" smooth="yes"/>
      <point x="416" y="658"/>
      <point x="473" y="620"/>
      <point x="512" y="553" type="curve" smooth="yes"/>
      <point x="546" y="494"/>
      <point x="565" y="416"/>
      <point x="565" y="332" type="curve" smooth="yes"/>
      <point x="565" y="248"/>
      <point x="546" y="170"/>
      <point x="512" y="112" type="curve" smooth="yes"/>
      <point x="473" y="45"/>
      <point x="416" y="6"/>
      <point x="350" y="1" type="curve" smooth="yes"/>
      <point x="348" y="0"/>
      <point x="345" y="0"/>
      <point x="343" y="0" type="curve" smooth="yes"/>
    </contour>
  </outline>
</glyph>
<glyph name="E" format="2">
  <advance width="650"/>
  <unicode hex="0045"/>
  <outline>
    <contour>
      <point x="84" y="0" type="line"/>
      <point x="84" y="664" type="line"/>
      <point x="565" y="664" type="line"/>
      <point x="565" y="583" type="line"/>
      <point x="165" y="583" type="line"/>
      <point x="165" y="373" type="line"/>
      <point x="419" y="373" type="line"/>
      <point x="419" y="292" type="line"/>
      <point x="165" y="292" type="line"/>
      <point x="165" y="81" type="line"/>
      <point x="565" y="81" type="line"/>
      <point x="565" y="0" type="line"/>
    </contour>
  </outline>
</glyph>
<glyph name="F" format="2">
  <advance width="650"/>
  <unicode hex="0046"/>
  <outline>
    <contour>
      <point x="84" y="0" type="line"/>
      <point x="84" y="664" type="line"/>
      <point x="565" y="664" type="line"/>
      <point x="565" y="583" type="line"/>
      <point x="165" y="583" type="line"/>
      <point x="165" y="410" type="line"/>
      <point x="492" y="410" type="line"/>
      <point x="492" y="329" type="line"/>
      <point x="165" y="329" type="line"/>
      <point x="165" y="0" type="line"/>
    </contour>
  </outline>
</glyph>
<glyph name="H" format="2">
  <advance width="650"/>
  <unicode hex="0048"/>
  <outline>
    <contour>
      <point x="84" y="0" type="line"/>
      <point x="84" y="664" type="line"/>
      <point x="165" y="664" type="line"/>
      <point x="165" y="410" type="line"/>
      <point x="484" y="410" type="line"/>
      <point x="484" y="664" type="line"/>
      <point x="565" y="664" type="line"/>
      <point x="565" y="0" type="line"/>
      <point x="484" y="0" type="line"/>
      <point x="484" y="329" type="line"/>
      <point x="165" y="329" type="line"/>
      <point x="165" y="0" type="line"/>
    </contour>
  </outline>
</glyph>
<glyph name="I" format="2">
  <advance width="650"/>
  <unicode hex="0049"/>
  <outline>
    <contour>
      <point x="84" y="0" type="line"/>
      <point x="84" y="81" type="line"/>
      <point x="284" y="81" type="line"/>
      <point x="284" y="583" type="line"/>
      <point x="84" y="583" type="line"/>
      <point x="84" y="664" type="line"/>
      <point x="565" y="664" type="line"/>
      <point x="565" y="583" type="line"/>
      <point x="365" y="583" type="line"/>
      <point x="365" y="81" type="line"/>
      <point x="565" y="81" type="line"/>
      <point x="565" y="0" type="line"/>
    </contour>
  </outline>
</glyph>
<glyph name="J" format="2">
  <advance width="650"/>
  <unicode hex="004A"/>
  <outline>
    <contour>
      <point x="325" y="0" type="curve" smooth="yes"/>
      <point x="263" y="0"/>
      <point x="205" y="21"/>
      <point x="161" y="58" type="curve" smooth="yes"/>
      <point x="111" y="100"/>
      <point x="85" y="160"/>
      <point x="85" y="232" type="curve" smooth="yes"/>
      <point x="85" y="273" type="line"/>
      <point x="166" y="273" type="line"/>
      <point x="166" y="232" type="line"/>
      <point x="166" y="232" type="line"/>
      <point x="166" y="128"/>
      <point x="246" y="81"/>
      <point x="325" y="81" type="curve" smooth="yes"/>
      <point x="405" y="81"/>
      <point x="485" y="128"/>
      <point x="485" y="232" type="curve" smooth="yes"/>
      <point x="485" y="583" type="line"/>
      <point x="231" y="583" type="line"/>
      <point x="231" y="664" type="line"/>
      <point x="566" y="664" type="line"/>
      <point x="566" y="232" type="line" smooth="yes"/>
      <point x="566" y="79"/>
      <point x="446" y="0"/>
    </contour>
  </outline>
</glyph>
<glyph name="K" format="2">
  <advance width="650"/>
  <unicode hex="004B"/>
  <outline>
    <contour>
      <point x="84" y="0" type="line"/>
      <point x="84" y="664" type="line"/>
      <point x="165" y="664" type="line"/>
      <point x="165" y="373" type="line"/>
      <point x="202" y="373" type="line"/>
      <point x="441" y="647" type="line"/>
      <point x="456" y="664" type="line"/>
      <point x="472" y="664" type="line" smooth="yes"/>
      <point x="474" y="664"/>
      <point x="476" y="664"/>
      <point x="479" y="664" type="curve" smooth="yes"/>
      <point x="565" y="664" type="line"/>
      <point x="493" y="582" type="line"/>
      <point x="493" y="582" type="line"/>
      <point x="275" y="332" type="line"/>
      <point x="506" y="68" type="line"/>
      <point x="509" y="64" type="line"/>
      <point x="565" y="0" type="line"/>
      <point x="456" y="0" type="line"/>
      <point x="427" y="34" type="line"/>
      <point x="427" y="34" type="line"/>
      <point x="201" y="292" type="line"/>
      <point x="165" y="292" type="line"/>
      <point x="165" y="0" type="line"/>
    </contour>
  </outline>
</glyph>
<glyph name="L" format="2">
  <advance width="650"/>
  <unicode hex="004C"/>
  <outline>
    <contour>
      <point x="84" y="0" type="line"/>
      <point x="84" y="664" type="line"/>
      <point x="165" y="664" type="line"/>
      <point x="165" y="81" type="line"/>
      <point x="565" y="81" type="line"/>
      <point x="565" y="0" type="line"/>
    </contour>
  </outline>
</glyph>
<glyph name="M" format="2">
  <advance width="650"/>
  <unicode hex="004D"/>
  <outline>
    <contour>
      <point x="165" y="0" type="line"/>
      <point x="84" y="0" type="line"/>
      <point x="84" y="664" type="line"/>
      <point x="165" y="664" type="line"/>
      <point x="324" y="137" type="line"/>
      <point x="484" y="664" type="line"/>
      <point x="565" y="664" type="line"/>
      <point x="565" y="0" type="line"/>
      <point x="484" y="0" type="line"/>
      <point x="484" y="394" type="line"/>
      <point x="365" y="0" type="line"/>
      <point x="284" y="0" type="line"/>
      <point x="165" y="394" type="line"/>
    </contour>
  </outline>
</glyph>
<glyph name="N" format="2">
  <advance width="650"/>
  <unicode hex="004E"/>
  <outline>
    <contour>
      <point x="165" y="0" type="line"/>
      <point x="84" y="0" type="line"/>
      <point x="84" y="664" type="line"/>
      <point x="165" y="664" type="line"/>
      <point x="484" y="152" type="line"/>
      <point x="484" y="664" type="line"/>
      <point x="565" y="664" type="line"/>
      <point x="565" y="0" type="line"/>
      <point x="484" y="0" type="line"/>
      <point x="165" y="512" type="line"/>
    </contour>
  </outline>
</glyph>
<glyph name="O" format="2">
  <advance width="650"/>
  <unicode hex="004F"/>
  <outline>
    <contour>
      <point x="325" y="0" type="curve" smooth="yes"/>
      <point x="235" y="0"/>
      <point x="84" y="43"/>
      <point x="84" y="332" type="curve" smooth="yes"/>
      <point x="84" y="621"/>
      <point x="235" y="664"/>
      <point x="325" y="664" type="curve" smooth="yes"/>
      <point x="414" y="664"/>
      <point x="565" y="621"/>
      <point x="565" y="332" type="curve" smooth="yes"/>
      <point x="565" y="43"/>
      <point x="414" y="0"/>
    </contour>
    <contour>
      <point x="325" y="81" type="curve" smooth="yes"/>
      <point x="373" y="81"/>
      <point x="409" y="97"/>
      <point x="435" y="130" type="curve" smooth="yes"/>
      <point x="468" y="171"/>
      <point x="484" y="239"/>
      <point x="484" y="332" type="curve" smooth="yes"/>
      <point x="484" y="425"/>
      <point x="468" y="493"/>
      <point x="435" y="535" type="curve" smooth="yes"/>
      <point x="409" y="567"/>
      <point x="373" y="583"/>
      <point x="325" y="583" type="curve"/>
      <point x="325" y="583" type="line"/>
      <point x="276" y="583"/>
      <point x="240" y="567"/>
      <point x="214" y="535" type="curve" smooth="yes"/>
      <point x="181" y="493"/>
      <point x="165" y="425"/>
      <point x="165" y="332" type="curve" smooth="yes"/>
      <point x="165" y="239"/>
      <point x="181" y="171"/>
      <point x="214" y="130" type="curve" smooth="yes"/>
      <point x="240" y="97"/>
      <point x="276" y="81"/>
    </contour>
  </outline>
</glyph>
<glyph name="P" format="2">
  <advance width="650"/>
  <unicode hex="0050"/>
  <outline>
    <contour>
      <point x="334" y="263" type="line" smooth="yes"/>
      <point x="437" y="263"/>
      <point x="484" y="344"/>
      <point x="484" y="423" type="curve" smooth="yes"/>
      <point x="484" y="503"/>
      <point x="437" y="583"/>
      <point x="334" y="583" type="curve" smooth="yes"/>
      <point x="165" y="583" type="line"/>
      <point x="165" y="263" type="line"/>
    </contour>
    <contour>
      <point x="84" y="0" type="line"/>
      <point x="84" y="664" type="line"/>
      <point x="343" y="664" type="line" smooth="yes"/>
      <point x="345" y="664"/>
      <point x="347" y="664"/>
      <point x="348" y="664" type="curve" smooth="yes"/>
      <point x="491" y="656"/>
      <point x="565" y="539"/>
      <point x="565" y="423" type="curve" smooth="yes"/>
      <point x="565" y="307"/>
      <point x="491" y="190"/>
      <point x="348" y="182" type="curve" smooth="yes"/>
      <point x="347" y="182"/>
      <point x="345" y="182"/>
      <point x="343" y="182" type="curve" smooth="yes"/>
      <point x="165" y="182" type="line"/>
      <point x="165" y="0" type="line"/>
    </contour>
  </outline>
</glyph>
<glyph name="S" format="2">
  <advance width="650"/>
  <unicode hex="0053"/>
  <outline>
    <contour>
      <point x="334" y="0" type="curve" smooth="yes"/>
      <point x="332" y="0" type="line" smooth="yes"/>
      <point x="329" y="0"/>
      <point x="327" y="0"/>
      <point x="324" y="0" type="curve"/>
      <point x="324" y="0" type="line"/>
      <point x="264" y="0"/>
      <point x="207" y="16"/>
      <point x="164" y="46" type="curve" smooth="yes"/>
      <point x="112" y="81"/>
      <point x="84" y="134"/>
      <point x="84" y="195" type="curve" smooth="yes"/>
      <point x="84" y="236" type="line"/>
      <point x="165" y="236" type="line"/>
      <point x="165" y="195" type="line"/>
      <point x="165" y="195" type="line"/>
      <point x="165" y="117"/>
      <point x="248" y="81"/>
      <point x="324" y="81" type="curve" smooth="yes"/>
      <point x="401" y="81"/>
      <point x="484" y="117"/>
      <point x="484" y="190" type="curve" smooth="yes"/>
      <point x="481" y="240"/>
      <point x="434" y="292"/>
      <point x="334" y="292" type="curve" smooth="yes"/>
      <point x="311" y="292" type="line"/>
      <point x="311" y="292" type="line"/>
      <point x="171" y="294"/>
      <point x="94" y="374"/>
      <point x="85" y="460" type="curve" smooth="yes"/>
      <point x="84" y="463"/>
      <point x="84" y="466"/>
      <point x="84" y="469" type="curve" smooth="yes"/>
      <point x="84" y="473" type="line" smooth="yes"/>
      <point x="84" y="475"/>
      <point x="84" y="476"/>
      <point x="84" y="478" type="curve" smooth="yes"/>
      <point x="84" y="571"/>
      <point x="163" y="664"/>
      <point x="315" y="664" type="curve" smooth="yes"/>
      <point x="317" y="664" type="line" smooth="yes"/>
      <point x="319" y="664"/>
      <point x="322" y="664"/>
      <point x="324" y="664" type="curve" smooth="yes"/>
      <point x="445" y="664"/>
      <point x="565" y="597"/>
      <point x="565" y="469" type="curve" smooth="yes"/>
      <point x="565" y="428" type="line"/>
      <point x="484" y="428" type="line"/>
      <point x="484" y="469" type="line"/>
      <point x="484" y="469" type="line"/>
      <point x="484" y="503"/>
      <point x="469" y="531"/>
      <point x="439" y="552" type="curve" smooth="yes"/>
      <point x="410" y="572"/>
      <point x="368" y="583"/>
      <point x="324" y="583" type="curve" smooth="yes"/>
      <point x="248" y="583"/>
      <point x="165" y="547"/>
      <point x="165" y="474" type="curve" smooth="yes"/>
      <point x="168" y="425"/>
      <point x="215" y="373"/>
      <point x="315" y="373" type="curve" smooth="yes"/>
      <point x="334" y="373" type="line"/>
      <point x="341" y="373" type="line" smooth="yes"/>
      <point x="479" y="370"/>
      <point x="555" y="289"/>
      <point x="564" y="204" type="curve" smooth="yes"/>
      <point x="565" y="201"/>
      <point x="565" y="198"/>
      <point x="565" y="195" type="curve" smooth="yes"/>
      <point x="565" y="191" type="line" smooth="yes"/>
      <point x="565" y="189"/>
      <point x="565" y="188"/>
      <point x="565" y="186" type="curve" smooth="yes"/>
      <point x="565" y="94"/>
      <point x="486" y="0"/>
    </contour>
  </outline>
</glyph>
<glyph name="V" format="2">
  <advance width="650"/>
  <unicode hex="0056"/>
  <outline>
    <contour>
      <point x="325" y="0" type="line"/>
      <point x="324" y="0" type="line"/>
      <point x="321" y="0" type="line"/>
      <point x="322" y="0"/>
      <point x="324" y="0"/>
      <point x="319" y="0" type="curve"/>
      <point x="321" y="0"/>
      <point x="322" y="0"/>
      <point x="318" y="0" type="curve" smooth="yes"/>
      <point x="308" y="2"/>
      <point x="300" y="7"/>
      <point x="293" y="15" type="curve" smooth="yes"/>
      <point x="292" y="17" type="line" smooth="yes"/>
      <point x="289" y="22"/>
      <point x="286" y="27"/>
      <point x="285" y="32" type="curve" smooth="yes"/>
      <point x="92" y="460" type="line" smooth="yes"/>
      <point x="84" y="469"/>
      <point x="82" y="481"/>
      <point x="84" y="493" type="curve" smooth="yes"/>
      <point x="84" y="664" type="line"/>
      <point x="165" y="664" type="line"/>
      <point x="165" y="489" type="line"/>
      <point x="325" y="136" type="line"/>
      <point x="485" y="491" type="line"/>
      <point x="485" y="624" type="line"/>
      <point x="484" y="624" type="line"/>
      <point x="484" y="664" type="line"/>
      <point x="565" y="664" type="line"/>
      <point x="565" y="633" type="line" smooth="yes"/>
      <point x="566" y="630"/>
      <point x="566" y="627"/>
      <point x="566" y="624" type="curve" smooth="yes"/>
      <point x="566" y="484" type="line" smooth="yes"/>
      <point x="566" y="475"/>
      <point x="562" y="465"/>
      <point x="556" y="458" type="curve" smooth="yes"/>
      <point x="364" y="32" type="line" smooth="yes"/>
      <point x="363" y="27"/>
      <point x="360" y="22"/>
      <point x="357" y="17" type="curve" smooth="yes"/>
      <point x="356" y="15" type="line" smooth="yes"/>
      <point x="349" y="7"/>
      <point x="341" y="2"/>
      <point x="331" y="0" type="curve" smooth="yes"/>
      <point x="329" y="0"/>
      <point x="327" y="0"/>
      <point x="330" y="0" type="curve"/>
      <point x="328" y="0"/>
      <point x="326" y="0"/>
      <point x="328" y="0" type="curve"/>
    </contour>
  </outline>
</glyph>
<glyph name="W" format="2">
  <advance width="650"/>
  <unicode hex="0057"/>
  <outline>
    <contour>
      <point x="417" y="0" type="curve" smooth="yes"/>
      <point x="412" y="0" type="line"/>
      <point x="412" y="0" type="line"/>
      <point x="406" y="1"/>
      <point x="401" y="3"/>
      <point x="396" y="5" type="curve" smooth="yes"/>
      <point x="382" y="13"/>
      <point x="375" y="28"/>
      <point x="376" y="43" type="curve"/>
      <point x="326" y="230" type="line"/>
      <point x="275" y="43" type="line"/>
      <point x="276" y="28"/>
      <point x="269" y="13"/>
      <point x="255" y="5" type="curve" smooth="yes"/>
      <point x="249" y="2"/>
      <point x="241" y="0"/>
      <point x="239" y="0" type="curve" smooth="yes"/>
      <point x="238" y="0"/>
      <point x="236" y="0"/>
      <point x="234" y="0" type="curve" smooth="yes"/>
      <point x="229" y="0" type="line"/>
      <point x="229" y="0" type="line"/>
      <point x="224" y="1"/>
      <point x="218" y="3"/>
      <point x="213" y="5" type="curve" smooth="yes"/>
      <point x="200" y="14"/>
      <point x="193" y="29"/>
      <point x="194" y="43" type="curve"/>
      <point x="90" y="464" type="line" smooth="yes"/>
      <point x="84" y="473"/>
      <point x="83" y="483"/>
      <point x="85" y="492" type="curve" smooth="yes"/>
      <point x="85" y="624" type="line"/>
      <point x="84" y="624" type="line"/>
      <point x="84" y="664" type="line"/>
      <point x="165" y="664" type="line"/>
      <point x="165" y="633" type="line" smooth="yes"/>
      <point x="166" y="630"/>
      <point x="166" y="627"/>
      <point x="166" y="624" type="curve" smooth="yes"/>
      <point x="166" y="485" type="line" smooth="yes"/>
      <point x="166" y="483"/>
      <point x="166" y="481"/>
      <point x="166" y="479" type="curve" smooth="yes"/>
      <point x="236" y="196" type="line"/>
      <point x="285" y="381" type="line"/>
      <point x="285" y="418" type="line"/>
      <point x="366" y="418" type="line"/>
      <point x="366" y="379" type="line"/>
      <point x="415" y="195" type="line"/>
      <point x="485" y="479" type="line" smooth="yes"/>
      <point x="485" y="481"/>
      <point x="485" y="483"/>
      <point x="485" y="485" type="curve" smooth="yes"/>
      <point x="485" y="624" type="line"/>
      <point x="484" y="624" type="line"/>
      <point x="484" y="664" type="line"/>
      <point x="565" y="664" type="line"/>
      <point x="565" y="633" type="line" smooth="yes"/>
      <point x="566" y="630"/>
      <point x="566" y="627"/>
      <point x="566" y="624" type="curve" smooth="yes"/>
      <point x="566" y="492" type="line" smooth="yes"/>
      <point x="568" y="483"/>
      <point x="567" y="473"/>
      <point x="561" y="464" type="curve" smooth="yes"/>
      <point x="457" y="44" type="line"/>
      <point x="458" y="29"/>
      <point x="451" y="14"/>
      <point x="438" y="5" type="curve" smooth="yes"/>
      <point x="431" y="2"/>
      <point x="424" y="0"/>
      <point x="422" y="0" type="curve" smooth="yes"/>
      <point x="420" y="0"/>
      <point x="419" y="0"/>
    </contour>
  </outline>
</glyph>
<glyph name="X" format="2">
  <advance width="650"/>
  <unicode hex="0058"/>
  <outline>
    <contour>
      <point x="168" y="0" type="line"/>
      <point x="74" y="0" type="line"/>
      <point x="279" y="332" type="line"/>
      <point x="74" y="664" type="line"/>
      <point x="168" y="664" type="line"/>
      <point x="325" y="408" type="line"/>
      <point x="483" y="664" type="line"/>
      <point x="576" y="664" type="line"/>
      <point x="372" y="332" type="line"/>
      <point x="576" y="0" type="line"/>
      <point x="483" y="0" type="line"/>
      <point x="325" y="256" type="line"/>
    </contour>
  </outline>
</glyph>
<glyph name="Y" format="2">
  <advance width="650"/>
  <unicode hex="0059"/>
  <outline>
    <contour>
      <point x="284" y="0" type="line"/>
      <point x="284" y="276" type="line"/>
      <point x="106" y="404" type="line" smooth="yes"/>
      <point x="92" y="410"/>
      <point x="84" y="424"/>
      <point x="84" y="441" type="curve" smooth="yes"/>
      <point x="84" y="664" type="line"/>
      <point x="165" y="664" type="line"/>
      <point x="165" y="461" type="line"/>
      <point x="325" y="344" type="line"/>
      <point x="484" y="461" type="line"/>
      <point x="484" y="664" type="line"/>
      <point x="565" y="664" type="line"/>
      <point x="565" y="441" type="line" smooth="yes"/>
      <point x="565" y="424"/>
      <point x="557" y="410"/>
      <point x="543" y="405" type="curve"/>
      <point x="365" y="276" type="line"/>
      <point x="365" y="0" type="line"/>
    </contour>
  </outline>
</glyph>
<glyph name="Z" format="2">
  <advance width="650"/>
  <unicode hex="005A"/>
  <outline>
    <contour>
      <point x="84" y="0" type="line"/>
      <point x="84" y="36" type="line" smooth="yes"/>
      <point x="83" y="45"/>
      <point x="85" y="55"/>
      <point x="91" y="63" type="curve" smooth="yes"/>
      <point x="448" y="583" type="line"/>
      <point x="165" y="583" type="line"/>
      <point x="165" y="437" type="line"/>
      <point x="84" y="437" type="line"/>
      <point x="84" y="664" type="line"/>
      <point x="521" y="664" type="line" smooth="yes"/>
      <point x="524" y="664"/>
      <point x="527" y="664"/>
      <point x="529" y="664" type="curve" smooth="yes"/>
      <point x="565" y="664" type="line"/>
      <point x="565" y="628" type="line" smooth="yes"/>
      <point x="566" y="619"/>
      <point x="564" y="609"/>
      <point x="558" y="601" type="curve" smooth="yes"/>
      <point x="201" y="81" type="line"/>
      <point x="484" y="81" type="line"/>
      <point x="484" y="227" type="line"/>
      <point x="565" y="227" type="line"/>
      <point x="565" y="0" type="line"/>
    </contour>
  </outline>
</glyph>
<glyph name="backslash" format="2">
  <advance width="650"/>
  <unicode hex="005C"/>
  <outline>
    <contour>
      <point x="191" y="664" type="line"/>
      <point x="558" y="0" type="line"/>
      <point x="459" y="0" type="line"/>
      <point x="92" y="664" type="line"/>
    </contour>
  </outline>
</glyph>
<glyph name="a" format="2">
  <advance width="650"/>
  <unicode hex="0061"/>
  <outline>
    <contour>
      <point x="485" y="0" type="line"/>
      <point x="485" y="38" type="line"/>
      <point x="447" y="13"/>
      <point x="394" y="0"/>
      <point x="326" y="0" type="curve" smooth="yes"/>
      <point x="321" y="0" type="line"/>
      <point x="316" y="0" type="line" smooth="yes"/>
      <point x="164" y="0"/>
      <point x="85" y="67"/>
      <point x="85" y="186" type="curve" smooth="yes"/>
      <point x="85" y="307"/>
      <point x="164" y="374"/>
      <point x="316" y="374" type="curve" smooth="yes"/>
      <point x="321" y="374" type="line"/>
      <point x="326" y="374" type="line" smooth="yes"/>
      <point x="392" y="374"/>
      <point x="444" y="361"/>
      <point x="482" y="337" type="curve"/>
      <point x="473" y="403"/>
      <point x="438" y="445"/>
      <point x="361" y="445" type="curve" smooth="yes"/>
      <point x="157" y="445" type="line"/>
      <point x="157" y="526" type="line"/>
      <point x="361" y="526" type="line" smooth="yes"/>
      <point x="482" y="526"/>
      <point x="566" y="447"/>
      <point x="566" y="295" type="curve"/>
      <point x="566" y="295" type="line"/>
      <point x="566" y="294" type="line"/>
      <point x="566" y="0" type="line"/>
    </contour>
    <contour>
      <point x="321" y="81" type="line"/>
      <point x="326" y="81" type="line" smooth="yes"/>
      <point x="429" y="81"/>
      <point x="476" y="107"/>
      <point x="476" y="186" type="curve" smooth="yes"/>
      <point x="476" y="278"/>
      <point x="415" y="293"/>
      <point x="326" y="293" type="curve" smooth="yes"/>
      <point x="321" y="293" type="line"/>
      <point x="316" y="293" type="line" smooth="yes"/>
      <point x="227" y="293"/>
      <point x="166" y="278"/>
      <point x="166" y="186" type="curve" smooth="yes"/>
      <point x="166" y="107"/>
      <point x="213" y="81"/>
      <point x="316" y="81" type="curve" smooth="yes"/>
    </contour>
  </outline>
</glyph>
<glyph name="b" format="2">
  <advance width="650"/>
  <unicode hex="0062"/>
  <outline>
    <contour>
      <point x="324" y="81" type="curve" smooth="yes"/>
      <point x="404" y="81"/>
      <point x="484" y="128"/>
      <point x="484" y="232" type="curve" smooth="yes"/>
      <point x="484" y="294" type="line" smooth="yes"/>
      <point x="484" y="383"/>
      <point x="416" y="445"/>
      <point x="324" y="445" type="curve" smooth="yes"/>
      <point x="245" y="445"/>
      <point x="165" y="398"/>
      <point x="165" y="294" type="curve" smooth="yes"/>
      <point x="165" y="232" type="line" smooth="yes"/>
      <point x="165" y="128"/>
      <point x="245" y="81"/>
    </contour>
    <contour>
      <point x="165" y="0" type="line"/>
      <point x="84" y="0" type="line"/>
      <point x="84" y="720" type="line"/>
      <point x="165" y="720" type="line"/>
      <point x="165" y="472" type="line"/>
      <point x="209" y="508"/>
      <point x="267" y="526"/>
      <point x="324" y="526" type="curve" smooth="yes"/>
      <point x="445" y="526"/>
      <point x="565" y="446"/>
      <point x="565" y="296" type="curve"/>
      <point x="565" y="296" type="line"/>
      <point x="565" y="223" type="line" smooth="yes"/>
      <point x="565" y="221"/>
      <point x="565" y="219"/>
      <point x="565" y="217" type="curve" smooth="yes"/>
      <point x="557" y="74"/>
      <point x="441" y="0"/>
      <point x="324" y="0" type="curve" smooth="yes"/>
      <point x="319" y="0" type="line" smooth="yes"/>
      <point x="261" y="1"/>
      <point x="207" y="20"/>
      <point x="165" y="54" type="curve"/>
    </contour>
  </outline>
</glyph>
<glyph name="c" format="2">
  <advance width="650"/>
  <unicode hex="0063"/>
  <outline>
    <contour>
      <point x="343" y="0" type="line" smooth="yes"/>
      <point x="262" y="0"/>
      <point x="198" y="21"/>
      <point x="152" y="60" type="curve" smooth="yes"/>
      <point x="107" y="99"/>
      <point x="84" y="156"/>
      <point x="84" y="222" type="curve" smooth="yes"/>
      <point x="84" y="227" type="line"/>
      <point x="84" y="231" type="line"/>
      <point x="84" y="296" type="line"/>
      <point x="84" y="298" type="line" smooth="yes"/>
      <point x="86" y="447"/>
      <point x="205" y="526"/>
      <point x="324" y="526" type="curve" smooth="yes"/>
      <point x="445" y="526"/>
      <point x="565" y="446"/>
      <point x="565" y="294" type="curve"/>
      <point x="484" y="294" type="line"/>
      <point x="484" y="383"/>
      <point x="416" y="445"/>
      <point x="324" y="445" type="curve" smooth="yes"/>
      <point x="245" y="445"/>
      <point x="165" y="398"/>
      <point x="165" y="294" type="curve" smooth="yes"/>
      <point x="165" y="231" type="line"/>
      <point x="165" y="227" type="line"/>
      <point x="165" y="222" type="line" smooth="yes"/>
      <point x="165" y="105"/>
      <point x="261" y="81"/>
      <point x="343" y="81" type="curve" smooth="yes"/>
      <point x="565" y="81" type="line"/>
      <point x="565" y="0" type="line"/>
    </contour>
  </outline>
</glyph>
<glyph name="d" format="2">
  <advance width="650"/>
  <unicode hex="0064"/>
  <outline>
    <contour>
      <point x="485" y="0" type="line"/>
      <point x="485" y="54" type="line"/>
      <point x="442" y="19"/>
      <point x="386" y="0"/>
      <point x="326" y="0" type="curve" smooth="yes"/>
      <point x="321" y="0" type="line" smooth="yes"/>
      <point x="206" y="2"/>
      <point x="93" y="76"/>
      <point x="85" y="218" type="curve" smooth="yes"/>
      <point x="85" y="219"/>
      <point x="85" y="221"/>
      <point x="85" y="223" type="curve" smooth="yes"/>
      <point x="85" y="296" type="line"/>
      <point x="85" y="298" type="line" smooth="yes"/>
      <point x="87" y="447"/>
      <point x="206" y="526"/>
      <point x="325" y="526" type="curve" smooth="yes"/>
      <point x="383" y="526"/>
      <point x="441" y="508"/>
      <point x="485" y="472" type="curve"/>
      <point x="485" y="720" type="line"/>
      <point x="566" y="720" type="line"/>
      <point x="566" y="0" type="line"/>
    </contour>
    <contour>
      <point x="326" y="81" type="curve" smooth="yes"/>
      <point x="405" y="81"/>
      <point x="485" y="128"/>
      <point x="485" y="232" type="curve" smooth="yes"/>
      <point x="485" y="294" type="line" smooth="yes"/>
      <point x="485" y="383"/>
      <point x="417" y="445"/>
      <point x="325" y="445" type="curve" smooth="yes"/>
      <point x="246" y="445"/>
      <point x="166" y="398"/>
      <point x="166" y="294" type="curve" smooth="yes"/>
      <point x="166" y="232" type="line" smooth="yes"/>
      <point x="166" y="128"/>
      <point x="246" y="81"/>
    </contour>
  </outline>
</glyph>
<glyph name="f" format="2">
  <advance width="650"/>
  <unicode hex="0066"/>
  <outline>
    <contour>
      <point x="85" y="0" type="line"/>
      <point x="85" y="81" type="line"/>
      <point x="222" y="81" type="line"/>
      <point x="222" y="445" type="line"/>
      <point x="85" y="445" type="line"/>
      <point x="85" y="526" type="line"/>
      <point x="222" y="526" type="line"/>
      <point x="224" y="644"/>
      <point x="242" y="720"/>
      <point x="391" y="720" type="curve" smooth="yes"/>
      <point x="566" y="720" type="line"/>
      <point x="566" y="639" type="line"/>
      <point x="391" y="639" type="line" smooth="yes"/>
      <point x="316" y="639"/>
      <point x="305" y="618"/>
      <point x="303" y="526" type="curve"/>
      <point x="481" y="526" type="line"/>
      <point x="481" y="445" type="line"/>
      <point x="303" y="445" type="line"/>
      <point x="303" y="81" type="line"/>
      <point x="566" y="81" type="line"/>
      <point x="566" y="0" type="line"/>
    </contour>
  </outline>
</glyph>
<glyph name="i" format="2">
  <advance width="650"/>
  <unicode hex="0069"/>
  <outline>
    <contour>
      <point x="260" y="590" type="line"/>
      <point x="260" y="720" type="line"/>
      <point x="391" y="720" type="line"/>
      <point x="391" y="590" type="line"/>
    </contour>
    <contour>
      <point x="85" y="0" type="line"/>
      <point x="85" y="81" type="line"/>
      <point x="285" y="81" type="line"/>
      <point x="285" y="445" type="line"/>
      <point x="125" y="445" type="line"/>
      <point x="125" y="526" type="line"/>
      <point x="366" y="526" type="line"/>
      <point x="366" y="81" type="line"/>
      <point x="566" y="81" type="line"/>
      <point x="566" y="0" type="line"/>
    </contour>
  </outline>
</glyph>
<glyph name="k" format="2">
  <advance width="650"/>
  <unicode hex="006B"/>
  <outline>
    <contour>
      <point x="165" y="0" type="line"/>
      <point x="84" y="0" type="line"/>
      <point x="84" y="720" type="line"/>
      <point x="165" y="720" type="line"/>
      <point x="165" y="248" type="line"/>
      <point x="443" y="526" type="line"/>
      <point x="560" y="526" type="line"/>
      <point x="315" y="283" type="line"/>
      <point x="570" y="0" type="line"/>
      <point x="462" y="0" type="line"/>
      <point x="259" y="227" type="line"/>
      <point x="165" y="134" type="line"/>
    </contour>
  </outline>
</glyph>
<glyph name="l" format="2">
  <advance width="650"/>
  <unicode hex="006C"/>
  <outline>
    <contour>
      <point x="84" y="0" type="line"/>
      <point x="84" y="81" type="line"/>
      <point x="284" y="81" type="line"/>
      <point x="284" y="639" type="line"/>
      <point x="84" y="639" type="line"/>
      <point x="84" y="720" type="line"/>
      <point x="365" y="720" type="line"/>
      <point x="365" y="81" type="line"/>
      <point x="565" y="81" type="line"/>
      <point x="565" y="0" type="line"/>
    </contour>
  </outline>
</glyph>
<glyph name="m" format="2">
  <advance width="650"/>
  <unicode hex="006D"/>
  <outline>
    <contour>
      <point x="165" y="303" type="curve" smooth="yes"/>
      <point x="165" y="0" type="line"/>
      <point x="84" y="0" type="line"/>
      <point x="84" y="303" type="line" smooth="yes"/>
      <point x="84" y="437"/>
      <point x="112" y="526"/>
      <point x="223" y="526" type="curve" smooth="yes"/>
      <point x="225" y="526" type="line" smooth="yes"/>
      <point x="271" y="526"/>
      <point x="303" y="511"/>
      <point x="324" y="484" type="curve"/>
      <point x="346" y="511"/>
      <point x="377" y="526"/>
      <point x="423" y="526" type="curve" smooth="yes"/>
      <point x="426" y="526" type="line" smooth="yes"/>
      <point x="547" y="526"/>
      <point x="565" y="437"/>
      <point x="565" y="303" type="curve" smooth="yes"/>
      <point x="565" y="0" type="line"/>
      <point x="484" y="0" type="line"/>
      <point x="484" y="303" type="line" smooth="yes"/>
      <point x="484" y="404"/>
      <point x="479" y="444"/>
      <point x="425" y="444" type="curve" smooth="yes"/>
      <point x="370" y="444"/>
      <point x="365" y="404"/>
      <point x="365" y="303" type="curve" smooth="yes"/>
      <point x="365" y="0" type="line"/>
      <point x="284" y="0" type="line"/>
      <point x="284" y="303" type="line" smooth="yes"/>
      <point x="284" y="403"/>
      <point x="279" y="443"/>
      <point x="224" y="443" type="curve" smooth="yes"/>
      <point x="170" y="443"/>
      <point x="165" y="403"/>
    </contour>
  </outline>
</glyph>
<glyph name="n" format="2">
  <advance width="650"/>
  <unicode hex="006E"/>
  <outline>
    <contour>
      <point x="84" y="0" type="line"/>
      <point x="84" y="294" type="line" smooth="yes"/>
      <point x="84" y="446"/>
      <point x="204" y="526"/>
      <point x="325" y="526" type="curve" smooth="yes"/>
      <point x="445" y="526"/>
      <point x="565" y="446"/>
      <point x="565" y="294" type="curve" smooth="yes"/>
      <point x="565" y="0" type="line"/>
      <point x="484" y="0" type="line"/>
      <point x="484" y="294" type="line" smooth="yes"/>
      <point x="484" y="398"/>
      <point x="404" y="445"/>
      <point x="325" y="445" type="curve" smooth="yes"/>
      <point x="233" y="445"/>
      <point x="165" y="383"/>
      <point x="165" y="294" type="curve" smooth="yes"/>
      <point x="165" y="0" type="line"/>
    </contour>
  </outline>
</glyph>
<glyph name="p" format="2">
  <advance width="650"/>
  <unicode hex="0070"/>
  <outline>
    <contour>
      <point x="484" y="294" type="line" smooth="yes"/>
      <point x="484" y="398"/>
      <point x="404" y="445"/>
      <point x="325" y="445" type="curve" smooth="yes"/>
      <point x="233" y="445"/>
      <point x="165" y="383"/>
      <point x="165" y="294" type="curve" smooth="yes"/>
      <point x="165" y="231" type="line" smooth="yes"/>
      <point x="165" y="142"/>
      <point x="233" y="81"/>
      <point x="325" y="81" type="curve" smooth="yes"/>
      <point x="404" y="81"/>
      <point x="484" y="128"/>
      <point x="484" y="231" type="curve" smooth="yes"/>
    </contour>
    <contour>
      <point x="84" y="-230" type="line"/>
      <point x="84" y="526" type="line"/>
      <point x="165" y="526" type="line"/>
      <point x="165" y="472" type="line"/>
      <point x="209" y="508"/>
      <point x="267" y="526"/>
      <point x="325" y="526" type="curve" smooth="yes"/>
      <point x="445" y="526"/>
      <point x="565" y="446"/>
      <point x="565" y="294" type="curve" smooth="yes"/>
      <point x="565" y="231" type="line" smooth="yes"/>
      <point x="565" y="79"/>
      <point x="445" y="0"/>
      <point x="325" y="0" type="curve" smooth="yes"/>
      <point x="267" y="0"/>
      <point x="209" y="18"/>
      <point x="165" y="54" type="curve"/>
      <point x="165" y="-230" type="line"/>
    </contour>
  </outline>
</glyph>
<glyph name="q" format="2">
  <advance width="650"/>
  <unicode hex="0071"/>
  <outline>
    <contour>
      <point x="166" y="231" type="line" smooth="yes"/>
      <point x="166" y="128"/>
      <point x="246" y="81"/>
      <point x="325" y="81" type="curve" smooth="yes"/>
      <point x="417" y="81"/>
      <point x="485" y="142"/>
      <point x="485" y="231" type="curve" smooth="yes"/>
      <point x="485" y="294" type="line" smooth="yes"/>
      <point x="485" y="383"/>
      <point x="417" y="445"/>
      <point x="325" y="445" type="curve" smooth="yes"/>
      <point x="246" y="445"/>
      <point x="166" y="398"/>
      <point x="166" y="294" type="curve" smooth="yes"/>
    </contour>
    <contour>
      <point x="485" y="-230" type="line"/>
      <point x="485" y="54" type="line"/>
      <point x="441" y="18"/>
      <point x="383" y="0"/>
      <point x="325" y="0" type="curve" smooth="yes"/>
      <point x="205" y="0"/>
      <point x="85" y="79"/>
      <point x="85" y="231" type="curve" smooth="yes"/>
      <point x="85" y="294" type="line" smooth="yes"/>
      <point x="85" y="446"/>
      <point x="205" y="526"/>
      <point x="325" y="526" type="curve" smooth="yes"/>
      <point x="383" y="526"/>
      <point x="441" y="508"/>
      <point x="485" y="472" type="curve"/>
      <point x="485" y="526" type="line"/>
      <point x="566" y="526" type="line"/>
      <point x="566" y="-230" type="line"/>
    </contour>
  </outline>
</glyph>
<glyph name="r" format="2">
  <advance width="650"/>
  <unicode hex="0072"/>
  <outline>
    <contour>
      <point x="95" y="0" type="line"/>
      <point x="95" y="526" type="line"/>
      <point x="176" y="526" type="line"/>
      <point x="176" y="472" type="line"/>
      <point x="221" y="508"/>
      <point x="278" y="526"/>
      <point x="336" y="526" type="curve" smooth="yes"/>
      <point x="456" y="526"/>
      <point x="550" y="447"/>
      <point x="550" y="295" type="curve"/>
      <point x="469" y="295" type="line"/>
      <point x="469" y="384"/>
      <point x="427" y="445"/>
      <point x="336" y="445" type="curve" smooth="yes"/>
      <point x="256" y="445"/>
      <point x="176" y="398"/>
      <point x="176" y="294" type="curve" smooth="yes"/>
      <point x="176" y="0" type="line"/>
    </contour>
  </outline>
</glyph>
<glyph name="s" format="2">
  <advance width="650"/>
  <unicode hex="0073"/>
  <outline>
    <contour>
      <point x="324" y="0" type="curve" smooth="yes"/>
      <point x="276" y="0"/>
      <point x="93" y="16"/>
      <point x="93" y="168" type="curve"/>
      <point x="174" y="168" type="line"/>
      <point x="174" y="83"/>
      <point x="308" y="81"/>
      <point x="324" y="81" type="curve" smooth="yes"/>
      <point x="344" y="81"/>
      <point x="475" y="70"/>
      <point x="475" y="168" type="curve" smooth="yes"/>
      <point x="475" y="185"/>
      <point x="459" y="221"/>
      <point x="406" y="221" type="curve" smooth="yes"/>
      <point x="288" y="221" type="line" smooth="yes"/>
      <point x="217" y="221"/>
      <point x="120" y="257"/>
      <point x="120" y="354" type="curve"/>
      <point x="120" y="354" type="line"/>
      <point x="120" y="355" type="line"/>
      <point x="120" y="374" type="line"/>
      <point x="120" y="375" type="line"/>
      <point x="120" y="375" type="line"/>
      <point x="120" y="482"/>
      <point x="240" y="526"/>
      <point x="325" y="526" type="curve" smooth="yes"/>
      <point x="409" y="526"/>
      <point x="529" y="482"/>
      <point x="529" y="375" type="curve"/>
      <point x="448" y="375" type="line"/>
      <point x="448" y="416"/>
      <point x="377" y="445"/>
      <point x="325" y="445" type="curve" smooth="yes"/>
      <point x="269" y="445"/>
      <point x="201" y="419"/>
      <point x="201" y="375" type="curve"/>
      <point x="201" y="375" type="line"/>
      <point x="201" y="374" type="line"/>
      <point x="201" y="355" type="line"/>
      <point x="201" y="354" type="line"/>
      <point x="201" y="354" type="line"/>
      <point x="201" y="337"/>
      <point x="235" y="302"/>
      <point x="288" y="302" type="curve" smooth="yes"/>
      <point x="406" y="302" type="line" smooth="yes"/>
      <point x="477" y="302"/>
      <point x="556" y="265"/>
      <point x="556" y="168" type="curve"/>
      <point x="556" y="168" type="line"/>
      <point x="556" y="7"/>
      <point x="373" y="0"/>
    </contour>
  </outline>
</glyph>
<glyph name="t" format="2">
  <advance width="650"/>
  <unicode hex="0074"/>
  <outline>
    <contour>
      <point x="565" y="221" type="line"/>
      <point x="565" y="219" type="line" smooth="yes"/>
      <point x="565" y="87"/>
      <point x="556" y="0"/>
      <point x="396" y="0" type="curve" smooth="yes"/>
      <point x="393" y="0" type="line"/>
      <point x="390" y="0" type="line" smooth="yes"/>
      <point x="229" y="0"/>
      <point x="221" y="88"/>
      <point x="221" y="222" type="curve" smooth="yes"/>
      <point x="221" y="445" type="line"/>
      <point x="84" y="445" type="line"/>
      <point x="84" y="526" type="line"/>
      <point x="221" y="526" type="line"/>
      <point x="221" y="720" type="line"/>
      <point x="302" y="720" type="line"/>
      <point x="302" y="526" type="line"/>
      <point x="480" y="526" type="line"/>
      <point x="480" y="445" type="line"/>
      <point x="302" y="445" type="line"/>
      <point x="302" y="222" type="line" smooth="yes"/>
      <point x="302" y="106"/>
      <point x="308" y="81"/>
      <point x="390" y="81" type="curve" smooth="yes"/>
      <point x="393" y="81" type="line"/>
      <point x="396" y="81" type="line" smooth="yes"/>
      <point x="478" y="81"/>
      <point x="484" y="106"/>
      <point x="484" y="222" type="curve" smooth="yes"/>
      <point x="484" y="263" type="line"/>
      <point x="565" y="263" type="line"/>
    </contour>
  </outline>
</glyph>
<glyph name="u" format="2">
  <advance width="650"/>
  <unicode hex="0075"/>
  <outline>
    <contour>
      <point x="485" y="0" type="line"/>
      <point x="485" y="54" type="line"/>
      <point x="441" y="18"/>
      <point x="383" y="0"/>
      <point x="325" y="0" type="curve" smooth="yes"/>
      <point x="205" y="0"/>
      <point x="85" y="79"/>
      <point x="85" y="231" type="curve" smooth="yes"/>
      <point x="85" y="526" type="line"/>
      <point x="166" y="526" type="line"/>
      <point x="166" y="231" type="line" smooth="yes"/>
      <point x="166" y="128"/>
      <point x="246" y="81"/>
      <point x="325" y="81" type="curve" smooth="yes"/>
      <point x="417" y="81"/>
      <point x="485" y="142"/>
      <point x="485" y="231" type="curve" smooth="yes"/>
      <point x="485" y="526" type="line"/>
      <point x="566" y="526" type="line"/>
      <point x="566" y="0" type="line"/>
    </contour>
  </outline>
</glyph>
<glyph name="v" format="2">
  <advance width="650"/>
  <unicode hex="0076"/>
  <outline>
    <contour>
      <point x="325" y="0" type="line"/>
      <point x="324" y="0" type="line"/>
      <point x="321" y="0" type="line"/>
      <point x="322" y="0"/>
      <point x="324" y="0"/>
      <point x="319" y="0" type="curve"/>
      <point x="321" y="0"/>
      <point x="322" y="0"/>
      <point x="318" y="0" type="curve" smooth="yes"/>
      <point x="308" y="2"/>
      <point x="300" y="7"/>
      <point x="293" y="15" type="curve" smooth="yes"/>
      <point x="92" y="352" type="line" smooth="yes"/>
      <point x="84" y="361"/>
      <point x="82" y="373"/>
      <point x="84" y="385" type="curve" smooth="yes"/>
      <point x="84" y="526" type="line"/>
      <point x="165" y="526" type="line"/>
      <point x="165" y="386" type="line"/>
      <point x="325" y="119" type="line"/>
      <point x="485" y="388" type="line"/>
      <point x="485" y="526" type="line"/>
      <point x="566" y="526" type="line"/>
      <point x="566" y="376" type="line" smooth="yes"/>
      <point x="566" y="366"/>
      <point x="562" y="357"/>
      <point x="556" y="350" type="curve" smooth="yes"/>
      <point x="356" y="15" type="line" smooth="yes"/>
      <point x="349" y="7"/>
      <point x="341" y="2"/>
      <point x="331" y="0" type="curve" smooth="yes"/>
      <point x="329" y="0"/>
      <point x="327" y="0"/>
      <point x="330" y="0" type="curve"/>
      <point x="328" y="0"/>
      <point x="326" y="0"/>
      <point x="328" y="0" type="curve"/>
    </contour>
  </outline>
</glyph>
<glyph name="w" format="2">
  <advance width="650"/>
  <unicode hex="0077"/>
  <outline>
    <contour>
      <point x="417" y="0" type="curve" smooth="yes"/>
      <point x="416" y="0" type="line"/>
      <point x="416" y="0" type="line"/>
      <point x="411" y="0" type="line" smooth="yes"/>
      <point x="407" y="1"/>
      <point x="404" y="2"/>
      <point x="400" y="3" type="curve" smooth="yes"/>
      <point x="396" y="5" type="line" smooth="yes"/>
      <point x="391" y="8"/>
      <point x="387" y="11"/>
      <point x="384" y="15" type="curve" smooth="yes"/>
      <point x="383" y="17"/>
      <point x="382" y="18"/>
      <point x="381" y="20" type="curve" smooth="yes"/>
      <point x="325" y="113" type="line"/>
      <point x="273" y="26" type="line" smooth="yes"/>
      <point x="269" y="17"/>
      <point x="263" y="10"/>
      <point x="255" y="5" type="curve" smooth="yes"/>
      <point x="249" y="2"/>
      <point x="241" y="0"/>
      <point x="239" y="0" type="curve" smooth="yes"/>
      <point x="238" y="0"/>
      <point x="236" y="0"/>
      <point x="234" y="0" type="curve" smooth="yes"/>
      <point x="229" y="0" type="line"/>
      <point x="229" y="0" type="line"/>
      <point x="224" y="1"/>
      <point x="218" y="3"/>
      <point x="213" y="5" type="curve" smooth="yes"/>
      <point x="206" y="10"/>
      <point x="200" y="17"/>
      <point x="197" y="25" type="curve" smooth="yes"/>
      <point x="90" y="202" type="line" smooth="yes"/>
      <point x="84" y="211"/>
      <point x="83" y="221"/>
      <point x="85" y="230" type="curve" smooth="yes"/>
      <point x="85" y="526" type="line"/>
      <point x="166" y="526" type="line"/>
      <point x="166" y="232" type="line"/>
      <point x="234" y="119" type="line"/>
      <point x="285" y="204" type="line"/>
      <point x="285" y="418" type="line"/>
      <point x="366" y="418" type="line"/>
      <point x="366" y="202" type="line"/>
      <point x="416" y="118" type="line"/>
      <point x="485" y="232" type="line"/>
      <point x="485" y="526" type="line"/>
      <point x="566" y="526" type="line"/>
      <point x="566" y="230" type="line" smooth="yes"/>
      <point x="568" y="221"/>
      <point x="567" y="211"/>
      <point x="561" y="202" type="curve" smooth="yes"/>
      <point x="452" y="21" type="line" smooth="yes"/>
      <point x="448" y="15"/>
      <point x="443" y="9"/>
      <point x="437" y="5" type="curve" smooth="yes"/>
      <point x="435" y="4"/>
      <point x="433" y="4"/>
      <point x="432" y="3" type="curve" smooth="yes"/>
      <point x="427" y="1"/>
      <point x="422" y="0"/>
    </contour>
  </outline>
</glyph>
<glyph name="x" format="2">
  <advance width="650"/>
  <unicode hex="0078"/>
  <outline>
    <contour>
      <point x="194" y="0" type="line"/>
      <point x="94" y="0" type="line"/>
      <point x="276" y="257" type="line"/>
      <point x="85" y="526" type="line"/>
      <point x="185" y="526" type="line"/>
      <point x="326" y="327" type="line"/>
      <point x="466" y="526" type="line"/>
      <point x="566" y="526" type="line"/>
      <point x="376" y="257" type="line"/>
      <point x="557" y="0" type="line"/>
      <point x="457" y="0" type="line"/>
      <point x="326" y="186" type="line"/>
    </contour>
  </outline>
</glyph>
<glyph name="y" format="2">
  <advance width="650"/>
  <unicode hex="0079"/>
  <outline>
    <contour>
      <point x="196" y="-230" type="curve" smooth="yes"/>
      <point x="156" y="-230" type="line"/>
      <point x="156" y="-149" type="line"/>
      <point x="196" y="-149" type="line"/>
      <point x="202" y="-149" type="line" smooth="yes"/>
      <point x="278" y="-148"/>
      <point x="284" y="-121"/>
      <point x="284" y="-8" type="curve" smooth="yes"/>
      <point x="284" y="30" type="line"/>
      <point x="92" y="352" type="line" smooth="yes"/>
      <point x="84" y="361"/>
      <point x="82" y="373"/>
      <point x="84" y="385" type="curve" smooth="yes"/>
      <point x="84" y="526" type="line"/>
      <point x="165" y="526" type="line"/>
      <point x="165" y="386" type="line"/>
      <point x="325" y="119" type="line"/>
      <point x="484" y="386" type="line"/>
      <point x="484" y="526" type="line"/>
      <point x="565" y="526" type="line"/>
      <point x="565" y="376" type="line" smooth="yes"/>
      <point x="565" y="368"/>
      <point x="563" y="361"/>
      <point x="558" y="355" type="curve" smooth="yes"/>
      <point x="557" y="352" type="line"/>
      <point x="365" y="30" type="line"/>
      <point x="365" y="-31" type="line"/>
      <point x="365" y="-33" type="line" smooth="yes"/>
      <point x="363" y="-153"/>
      <point x="347" y="-230"/>
    </contour>
  </outline>
</glyph>
<glyph name="z" format="2">
  <advance width="650"/>
  <unicode hex="007A"/>
  <outline>
    <contour>
      <point x="85" y="0" type="line"/>
      <point x="85" y="57" type="line"/>
      <point x="125" y="101" type="line"/>
      <point x="125" y="101" type="line"/>
      <point x="435" y="445" type="line"/>
      <point x="85" y="445" type="line"/>
      <point x="85" y="526" type="line"/>
      <point x="566" y="526" type="line"/>
      <point x="566" y="469" type="line"/>
      <point x="526" y="425" type="line"/>
      <point x="526" y="425" type="line"/>
      <point x="216" y="81" type="line"/>
      <point x="566" y="81" type="line"/>
      <point x="566" y="0" type="line"/>
    </contour>
  </outline>
</glyph>
<glyph name="braceleft" format="2">
  <advance width="650"/>
  <unicode hex="007B"/>
  <outline>
    <contour>
      <point x="423.53" y="-80.25" type="line" smooth="yes" name="hr00"/>
      <point x="352.58" y="-80.25"/>
      <point x="304.85" y="-69.5"/>
      <point x="280.34" y="-48.4297" type="curve" smooth="yes"/>
      <point x="255.83" y="-27.3604"/>
      <point x="243.79" y="14.7803"/>
      <point x="243.79" y="78.4199" type="curve" smooth="yes"/>
      <point x="243.79" y="181.19" type="line" smooth="yes"/>
      <point x="243.79" y="224.19"/>
      <point x="236.05" y="254.29"/>
      <point x="221" y="271.06" type="curve" smooth="yes"/>
      <point x="205.52" y="287.83"/>
      <point x="177.57" y="296"/>
      <point x="137.58" y="296" type="curve" smooth="yes" name="dv04"/>
      <point x="87.7002" y="296" type="line"/>
      <point x="87.7002" y="357.49" type="line"/>
      <point x="137.58" y="357.49" type="line" smooth="yes" name="dv05"/>
      <point x="141.09" y="357.49"/>
      <point x="205.95" y="365.66"/>
      <point x="221" y="382" type="curve" smooth="yes"/>
      <point x="236.05" y="398.771"/>
      <point x="243.79" y="428.44"/>
      <point x="243.79" y="471.01" type="curve" smooth="yes"/>
      <point x="243.79" y="574.21" type="line" smooth="yes"/>
      <point x="243.79" y="637.85"/>
      <point x="255.83" y="679.99"/>
      <point x="280.34" y="701.06" type="curve" smooth="yes"/>
      <point x="303.99" y="722.13"/>
      <point x="351.72" y="732.45"/>
      <point x="423.53" y="732.45" type="curve" smooth="yes"/>
      <point x="451.05" y="732.45" type="line" name="dv03"/>
      <point x="451.05" y="670.96" type="line" name="dv02"/>
      <point x="420.95" y="670.96" type="line" smooth="yes"/>
      <point x="380.96" y="670.96"/>
      <point x="354.729" y="664.94"/>
      <point x="342.689" y="652.47" type="curve" smooth="yes"/>
      <point x="330.22" y="640"/>
      <point x="324.2" y="613.34"/>
      <point x="324.2" y="572.49" type="curve" smooth="yes"/>
      <point x="324.2" y="465.85" type="line" smooth="yes"/>
      <point x="324.2" y="420.7"/>
      <point x="317.75" y="388.021"/>
      <point x="304.85" y="367.81" type="curve" smooth="yes"/>
      <point x="292.38" y="348.46"/>
      <point x="270.02" y="333.84"/>
      <point x="237.77" y="326.53" type="curve" name="iv01"/>
      <point x="301.41" y="311.05"/>
      <point x="324.2" y="276.22"/>
      <point x="324.2" y="186.78" type="curve" smooth="yes"/>
      <point x="324.2" y="80.1396" type="line" smooth="yes"/>
      <point x="324.2" y="39.29"/>
      <point x="330.22" y="12.6299"/>
      <point x="342.689" y="0.160156" type="curve" smooth="yes"/>
      <point x="354.729" y="-12.3096"/>
      <point x="380.96" y="-18.3301"/>
      <point x="420.95" y="-18.3301" type="curve" smooth="yes" name="dv01"/>
      <point x="451.05" y="-18.3301" type="line"/>
      <point x="451.05" y="-80.25" type="line" name="sv01"/>
    </contour>
  </outline>
</glyph>
<glyph name="braceright" format="2">
  <advance width="650"/>
  <unicode hex="007D"/>
  <outline>
    <contour>
      <point x="191.03" y="-18.3398" type="line" name="hr00"/>
      <point x="220.27" y="-18.3398" type="line" smooth="yes" name="dv02"/>
      <point x="260.26" y="-18.3398"/>
      <point x="286.92" y="-11.8896"/>
      <point x="299.39" y="0.580078" type="curve" smooth="yes"/>
      <point x="311.859" y="13.0508"/>
      <point x="317.88" y="39.2803"/>
      <point x="317.88" y="80.1309" type="curve" smooth="yes"/>
      <point x="317.88" y="186.771" type="line" smooth="yes"/>
      <point x="317.88" y="276.21"/>
      <point x="340.67" y="311.04"/>
      <point x="404.31" y="326.521" type="curve" name="iv01"/>
      <point x="372.92" y="333.83"/>
      <point x="350.56" y="347.591"/>
      <point x="337.66" y="367.801" type="curve" smooth="yes"/>
      <point x="325.189" y="387.15"/>
      <point x="317.88" y="417.25"/>
      <point x="317.88" y="465.841" type="curve" smooth="yes"/>
      <point x="317.88" y="572.48" type="line" smooth="yes"/>
      <point x="317.88" y="613.33"/>
      <point x="311.859" y="639.561"/>
      <point x="299.39" y="652.03" type="curve" smooth="yes"/>
      <point x="286.92" y="664.5"/>
      <point x="260.26" y="670.95"/>
      <point x="220.27" y="670.95" type="curve" smooth="yes" name="dv03"/>
      <point x="191.03" y="670.95" type="line"/>
      <point x="191.03" y="732.44" type="line"/>
      <point x="217.689" y="732.44" type="line" smooth="yes" name="dv04"/>
      <point x="289.5" y="732.44"/>
      <point x="337.229" y="722.12"/>
      <point x="360.88" y="701.051" type="curve" smooth="yes"/>
      <point x="384.96" y="679.98"/>
      <point x="397" y="637.41"/>
      <point x="397" y="574.2" type="curve" smooth="yes"/>
      <point x="397" y="471" type="line" smooth="yes"/>
      <point x="397" y="426.28"/>
      <point x="409.04" y="399.19"/>
      <point x="433.12" y="381.99" type="curve" smooth="yes"/>
      <point x="455.91" y="365.221"/>
      <point x="489.88" y="357.48"/>
      <point x="529.439" y="357.48" type="curve" smooth="yes"/>
      <point x="556.96" y="357.48" type="line" name="dv06"/>
      <point x="556.96" y="295.99" type="line" name="dv05"/>
      <point x="529.439" y="295.99" type="line" smooth="yes"/>
      <point x="488.59" y="295.99"/>
      <point x="455.479" y="287.82"/>
      <point x="433.12" y="271.051" type="curve" smooth="yes"/>
      <point x="409.04" y="253.42"/>
      <point x="397" y="225.9"/>
      <point x="397" y="181.181" type="curve" smooth="yes"/>
      <point x="397" y="78.4102" type="line" smooth="yes"/>
      <point x="397" y="14.7705"/>
      <point x="384.96" y="-27.3691"/>
      <point x="360.88" y="-48.4395" type="curve" smooth="yes"/>
      <point x="336.37" y="-69.5098"/>
      <point x="288.64" y="-80.2598"/>
      <point x="217.689" y="-80.2598" type="curve" smooth="yes" name="dv01"/>
      <point x="191.03" y="-80.2598" type="line"/>
    </contour>
  </outline>
</glyph>
<glyph name="asciitilde" format="2">
  <advance width="650"/>
  <unicode hex="007E"/>
  <outline>
    <contour>
      <point x="587" y="449" type="line"/>
      <point x="624" y="348"/>
      <point x="567" y="281"/>
      <point x="489" y="254" type="curve" smooth="yes"/>
      <point x="410" y="224"/>
      <point x="323" y="239"/>
      <point x="287" y="340" type="curve" smooth="yes"/>
      <point x="272" y="381"/>
      <point x="241" y="397"/>
      <point x="189" y="378" type="curve" smooth="yes"/>
      <point x="140" y="360"/>
      <point x="125" y="324"/>
      <point x="139" y="286" type="curve"/>
      <point x="63" y="258" type="line"/>
      <point x="26" y="359"/>
      <point x="83" y="425"/>
      <point x="161" y="453" type="curve" smooth="yes"/>
      <point x="240" y="483"/>
      <point x="327" y="468"/>
      <point x="363" y="367" type="curve" smooth="yes"/>
      <point x="378" y="326"/>
      <point x="409" y="310"/>
      <point x="461" y="329" type="curve" smooth="yes"/>
      <point x="510" y="347"/>
      <point x="525" y="383"/>
      <point x="511" y="421" type="curve"/>
    </contour>
  </outline>
</glyph>
